<svg xmlns="http://www.w3.org/2000/svg" viewBox="0 0 520 140" fill="none">
  <!-- Sparkle (4-point star) upper-left of H -->
  <g transform="translate(58 38)">
    <path d="M0 -28 L5 -5 L28 0 L5 5 L0 28 L-5 5 L-28 0 L-5 -5 Z"
          fill="#0D9488"/>
    <circle cx="0" cy="0" r="4.5" fill="#F97316"/>
  </g>

  <!-- H -->
  <g fill="#0D9488">
    <rect x="100" y="32" width="18" height="80" rx="3"/>
    <rect x="100" y="63" width="58" height="18" rx="3"/>
    <rect x="140" y="32" width="18" height="80" rx="3"/>
  </g>

  <!-- ! -->
  <g fill="currentColor">
    <rect x="172" y="32" width="14" height="58" rx="3"/>
    <circle cx="179" cy="105" r="8"/>
  </g>

  <!-- Map-pin O -->
  <g transform="translate(225 32)">
    <path d="M30 0
             C46.6 0 60 13.4 60 30
             C60 50 36 78 30 90
             C24 78 0 50 0 30
             C0 13.4 13.4 0 30 0 Z"
          fill="#0D9488"/>
    <circle cx="30" cy="30" r="9" fill="#F97316"/>
  </g>

  <!-- u t z -->
  <g fill="currentColor">
    <!-- u -->
    <path d="M310 60 V96 C310 105 317 112 326 112 C335 112 342 105 342 96 V60 H328 V94 C328 96 326 98 324 98 C322 98 320 96 320 94 V60 Z" />
    <rect x="310" y="60" width="14" height="38" rx="3"/>
    <rect x="328" y="60" width="14" height="52" rx="3"/>

    <!-- t -->
    <rect x="358" y="44" width="14" height="68" rx="3"/>
    <rect x="350" y="60" width="30" height="12" rx="3"/>

    <!-- z -->
    <path d="M395 60 H440 L395 100 H440 V112 H378 L425 72 H378 V60 Z" />
  </g>
</svg>
